<?xml version="1.0" standalone="no"?>
<!DOCTYPE svg PUBLIC "-//W3C//DTD SVG 20010904//EN"
 "http://www.w3.org/TR/2001/REC-SVG-20010904/DTD/svg10.dtd">
<svg version="1.0" xmlns="http://www.w3.org/2000/svg"
 width="512.000000pt" height="512.000000pt" viewBox="0 0 512.000000 512.000000"
 preserveAspectRatio="xMidYMid meet">
<metadata>
Created by potrace 1.11, written by Peter Selinger 2001-2013
</metadata>
<g transform="translate(0.000000,512.000000) scale(0.100000,-0.100000)"
fill="#000000" stroke="none">
<path d="M2379 5116 c-2 -2 -35 -6 -74 -10 -187 -16 -414 -67 -616 -139 -505
-180 -960 -537 -1261 -991 -182 -273 -312 -587 -377 -906 -20 -97 -27 -148
-41 -280 -8 -78 -5 -466 4 -510 3 -14 7 -45 10 -70 14 -123 68 -347 117 -488
238 -683 754 -1236 1419 -1519 152 -65 381 -134 522 -158 18 -3 40 -8 48 -10
8 -2 44 -7 80 -10 36 -4 87 -11 115 -15 51 -8 469 -5 515 4 14 2 45 7 70 10
25 4 56 8 70 11 14 3 41 7 60 10 19 3 82 17 140 32 388 94 754 286 1065 557
226 197 439 463 574 720 75 143 179 394 196 476 2 8 10 40 19 70 55 195 80
399 81 655 0 219 -10 337 -41 485 -9 41 -18 86 -20 100 -10 53 -66 237 -101
329 -322 863 -1134 1510 -2043 1627 -25 3 -56 8 -70 11 -28 5 -456 14 -461 9z
m361 -170 c52 -4 109 -8 125 -11 71 -12 92 -15 130 -20 67 -10 295 -72 380
-103 134 -50 275 -116 384 -180 449 -264 793 -652 1004 -1132 76 -172 153
-461 172 -640 3 -30 8 -77 11 -105 8 -63 7 -323 0 -392 -3 -29 -8 -77 -11
-105 -3 -29 -7 -60 -10 -68 -2 -8 -7 -33 -10 -55 -31 -222 -142 -528 -276
-761 -180 -313 -392 -543 -729 -792 -102 -75 -331 -195 -490 -257 -181 -71
-455 -133 -655 -150 -88 -8 -334 -8 -406 0 -30 3 -76 8 -104 11 -86 9 -256 44
-365 76 -297 85 -575 230 -825 429 -80 63 -272 249 -334 324 -242 289 -420
642 -499 990 -37 162 -42 194 -57 355 -20 205 1 513 48 725 102 450 322 845
656 1175 378 375 824 594 1371 675 19 3 91 8 160 11 69 4 126 8 127 9 3 2 67
-1 203 -9z"/>
<path d="M3616 4168 c-40 -23 -589 -583 -621 -633 -51 -79 -65 -128 -71 -250
l-6 -110 -78 -80 c-43 -44 -82 -89 -87 -100 -15 -31 3 -82 35 -99 47 -24 77
-9 170 83 134 134 124 114 129 248 4 119 13 167 41 213 9 14 146 157 306 317
160 161 294 303 298 314 25 66 -55 133 -116 97z"/>
<path d="M1283 4043 c-42 -20 -110 -151 -129 -248 -2 -11 -6 -33 -10 -48 -22
-101 4 -312 53 -437 103 -262 183 -363 673 -854 403 -403 420 -417 523 -422
70 -3 123 12 184 53 l55 36 56 -57 55 -56 -14 -42 c-7 -23 -13 -69 -13 -102
-1 -109 12 -125 379 -493 384 -385 388 -388 535 -388 101 0 154 20 224 85 123
113 140 304 40 440 -58 80 -2537 2547 -2560 2548 -11 0 -34 -6 -51 -15z m2491
-2652 c20 -37 25 -87 15 -128 -10 -36 -71 -101 -103 -108 -112 -25 -107 -29
-473 337 -355 355 -348 345 -321 441 30 104 12 150 -99 259 -116 115 -188 122
-312 33 -36 -26 -73 -31 -115 -15 -33 12 -720 700 -798 799 -134 168 -207 304
-249 461 -24 95 -19 260 12 342 10 26 42 -5 1219 -1182 665 -665 1216 -1222
1224 -1239z"/>
<path d="M3845 3878 c-11 -6 -145 -136 -297 -289 -242 -241 -278 -281 -278
-307 0 -43 37 -83 80 -87 34 -3 46 8 323 284 266 266 287 289 287 321 0 40 -6
50 -40 73 -28 20 -47 21 -75 5z"/>
<path d="M4150 3636 c-14 -7 -154 -142 -313 -300 -220 -220 -298 -292 -335
-308 -40 -18 -66 -21 -171 -20 -68 0 -133 -3 -145 -8 -32 -12 -216 -200 -223
-228 -9 -35 21 -90 53 -98 41 -11 68 5 152 88 l78 77 109 2 c119 2 184 16 255
56 59 33 646 618 655 651 8 34 -11 77 -41 91 -32 14 -43 14 -74 -3z"/>
<path d="M1465 1858 c-406 -408 -400 -400 -399 -544 3 -255 289 -412 504 -276
59 37 739 718 745 746 13 56 -28 106 -87 106 -16 0 -118 -96 -378 -354 -195
-195 -366 -359 -379 -366 -41 -21 -103 -21 -149 2 -79 37 -115 143 -76 221 9
18 151 167 316 332 383 383 378 377 378 415 0 42 -39 80 -82 80 -30 0 -65 -32
-393 -362z"/>
</g>
</svg>
